<svg height="512pt" viewBox="-72 0 512 512" width="512pt" xmlns="http://www.w3.org/2000/svg"><g fill="#ffd15d"><path d="m183.652344 166.957031c-9.21875 0-16.695313-7.476562-16.695313-16.695312v-66.785157c0-9.21875 7.476563-16.695312 16.695313-16.695312s16.695312 7.476562 16.695312 16.695312v66.785157c0 9.21875-7.476562 16.695312-16.695312 16.695312zm0 0"/><path d="m217.042969 100.175781h-66.78125c-9.222657 0-16.695313-7.476562-16.695313-16.699219 0-9.21875 7.472656-16.695312 16.695313-16.695312h66.78125c9.222656 0 16.695312 7.476562 16.695312 16.695312 0 9.222657-7.472656 16.699219-16.695312 16.699219zm0 0"/><path d="m350.609375 445.21875h-333.914063c-9.21875 0-16.695312-7.476562-16.695312-16.695312 0-9.222657 7.476562-16.699219 16.695312-16.699219h333.914063c9.21875 0 16.695313 7.476562 16.695313 16.699219 0 9.21875-7.476563 16.695312-16.695313 16.695312zm0 0"/></g><path d="m317.21875 33.390625h-267.132812c-9.21875 0-16.695313-7.472656-16.695313-16.695313 0-9.21875 7.476563-16.695312 16.695313-16.695312h267.132812c9.21875 0 16.695312 7.476562 16.695312 16.695312 0 9.222657-7.476562 16.695313-16.695312 16.695313zm0 0" fill="#a2b1bf"/><path d="m283.824219 166.957031c-9.21875 0-16.695313-7.476562-16.695313-16.695312v-133.566407c0-9.21875 7.476563-16.695312 16.695313-16.695312 9.222656 0 16.699219 7.476562 16.699219 16.695312v133.566407c0 9.21875-7.476563 16.695312-16.699219 16.695312zm0 0" fill="#a2b1bf"/><path d="m83.476562 166.957031c-9.21875 0-16.695312-7.476562-16.695312-16.695312v-133.566407c0-9.21875 7.476562-16.695312 16.695312-16.695312 9.222657 0 16.699219 7.476562 16.699219 16.695312v133.566407c0 9.21875-7.476562 16.695312-16.699219 16.695312zm0 0" fill="#a2b1bf"/><path d="m283.824219 512h-200.347657c-46.027343 0-83.476562-37.449219-83.476562-83.476562v-211.480469c0-46.03125 37.449219-83.476563 83.476562-83.476563h200.347657c46.03125 0 83.480469 37.445313 83.480469 83.476563v211.480469c0 46.027343-37.449219 83.476562-83.480469 83.476562zm-200.347657-345.042969c-27.617187 0-50.085937 22.46875-50.085937 50.085938v211.480469c0 27.617187 22.46875 50.085937 50.085937 50.085937h200.347657c27.621093 0 50.089843-22.46875 50.089843-50.085937v-211.480469c0-27.617188-22.46875-50.085938-50.089843-50.085938zm0 0" fill="#485566"/><path d="m183.652344 389.566406c-39.894532 0-72.347656-32.457031-72.347656-72.347656 0-14.367188 4.203124-28.253906 12.160156-40.160156l46.304687-69.292969c3.097657-4.632813 8.304688-7.417969 13.882813-7.417969 5.574218 0 10.78125 2.78125 13.882812 7.417969l46.304688 69.292969c7.953125 11.902344 12.160156 25.792968 12.160156 40.160156 0 39.890625-32.457031 72.347656-72.347656 72.347656zm0-142.472656-32.421875 48.519531c-4.273438 6.394531-6.535157 13.863281-6.535157 21.605469 0 21.480469 17.476563 38.957031 38.957032 38.957031 21.480468 0 38.957031-17.476562 38.957031-38.957031 0-7.742188-2.257813-15.210938-6.53125-21.605469zm0 0" fill="#b8c9d9"/></svg>