<svg height="512pt" viewBox="0 0 512 512" width="512pt" xmlns="http://www.w3.org/2000/svg"><path d="m512 256c0 141.386719-114.613281 256-256 256s-256-114.613281-256-256 114.613281-256 256-256 256 114.613281 256 256zm0 0" fill="#f03049"/><path d="m512 256c0-21.710938-2.714844-42.785156-7.800781-62.914062l-91.75-91.75-132.332031 37.417968-224.199219 276.933594 40.394531 40.394531c43.78125 34.988281 99.285156 55.917969 159.6875 55.917969 141.386719 0 256-114.613281 256-256zm0 0" fill="#d1093a"/><path d="m17.671875 349.640625c9.4375 24.003906 22.40625 46.222656 38.25 66.046875l65.769531-65.769531-69.230468-35.066407zm0 0" fill="#414952"/><path d="m211.46875 155.84375 33.609375 33.609375 19.230469-19.234375c18.625-18.621094 44.378906-28.28125 70.65625-26.5l74.269531 5.039062 3.214844-47.421874-74.265625-5.039063c-39.976563-2.710937-79.152344 11.984375-107.480469 40.3125zm0 0" fill="#fff"/><path d="m338.183594 96.296875c-29.257813-1.984375-58.078125 5.363281-82.539063 20.546875v62.042969l8.664063-8.667969c18.625-18.625 44.378906-28.285156 70.65625-26.5l74.269531 5.039062 3.214844-47.421874zm0 0" fill="#dce1eb"/><path d="m224.566406 142.746094-172.105468 172.105468 118.25 118.253907 125.320312-125.316407c25.839844-25.839843 25.839844-67.734374 0-93.574218zm12.964844 106.910156c9.773438-9.777344 25.625-9.777344 35.402344 0 9.777344 9.773438 9.777344 25.625 0 35.402344l-61.097656 61.097656c-9.777344 9.777344-25.628907 9.777344-35.402344 0-9.777344-9.777344-9.777344-25.628906 0-35.402344zm0 0" fill="#cdd2e1"/><path d="m296.03125 214.214844-40.386719-40.390625v68.507812c6.265625.101563 12.503907 2.539063 17.289063 7.324219 9.777344 9.773438 9.777344 25.625 0 35.402344l-17.289063 17.289062v45.828125l40.386719-40.386719c25.839844-25.839843 25.839844-67.734374 0-93.574218zm0 0" fill="#bec3d2"/><path d="m369.980469 270.441406c0 24.734375 20.050781 44.78125 44.78125 44.78125s44.777343-20.046875 44.777343-44.78125c0-24.730468-44.777343-91.957031-44.777343-91.957031s-44.78125 67.226563-44.78125 91.957031zm0 0" fill="#ffd400"/><path d="m414.761719 315.222656c24.730469 0 44.777343-20.046875 44.777343-44.78125 0-24.730468-44.777343-91.957031-44.777343-91.957031s-.046875.070313-.136719.207031zm0 0" fill="#fdba12"/></svg>